<?xml version="1.0" encoding="utf-8"?>
<!-- Generator: Adobe Illustrator 16.0.0, SVG Export Plug-In . SVG Version: 6.00 Build 0)  -->
<!DOCTYPE svg PUBLIC "-//W3C//DTD SVG 1.1//EN" "http://www.w3.org/Graphics/SVG/1.1/DTD/svg11.dtd">
<svg version="1.1" id="Layer_1" xmlns="http://www.w3.org/2000/svg" xmlns:xlink="http://www.w3.org/1999/xlink" x="0px" y="0px"
	 width="128px" height="128px" viewBox="0 0 128 128" enable-background="new 0 0 128 128" xml:space="preserve">
<g>
	<g>
		<path fill="#282D33" d="M114.932,76.141H88.104v-4h23.867l0.051-0.142l1.526,0.105c0.232,0.019,0.464,0.036,0.698,0.036
			c4.529,0,8.215-3.646,8.215-8.128c0-4.416-3.496-7.977-7.958-8.107l-2.187-0.063l0.258-2.172c0.103-0.859,0.152-1.639,0.152-2.383
			c0-11.094-9.11-20.119-20.309-20.119c-1.81,0-3.66,0.258-5.498,0.767l-2.202,0.609l-0.313-2.263C82.336,15.298,69.249,4,53.966,4
			C37.017,4,23.227,17.66,23.227,34.449l0.005,2.003l-1.775,0.201C12.382,37.68,5.539,45.28,5.539,54.333
			c0,9.819,8.064,17.808,17.976,17.808h6.356v4h-6.356c-12.118,0-21.976-9.783-21.976-21.808c0-10.5,7.503-19.403,17.721-21.387
			C20.055,14.645,35.318,0,53.966,0C70.497,0,84.757,11.713,88,27.583c1.478-0.275,2.956-0.415,4.418-0.415
			c13.403,0,24.309,10.82,24.309,24.119c0,0.282-0.006,0.566-0.018,0.856c5.61,1.117,9.752,5.984,9.752,11.869
			c0,6.458-5.109,11.752-11.524,12.109L114.932,76.141z"/>
	</g>
	<g>
		<g>
			<path fill="#282D33" d="M93.111,128h-4V96.968l0.591-0.587c7.124-7.077,11.048-16.48,11.048-26.477
				c0-20.674-16.973-37.494-37.836-37.494c-20.864,0-37.839,16.82-37.839,37.494c0,0.57,0.021,1.133,0.045,1.698l0.025,0.586
				l-11.424,19.62h7.777v17.59c0,4.771,3.92,8.652,8.74,8.652H49.25V128h-4v-5.949H30.239c-7.025,0-12.74-5.676-12.74-12.652v-13.59
				H6.763l14.338-24.622c-0.015-0.426-0.025-0.852-0.025-1.282c0-22.88,18.769-41.494,41.839-41.494
				c23.068,0,41.836,18.614,41.836,41.494c0,10.79-4.127,20.955-11.639,28.716V128z"/>
		</g>
	</g>
	<g>
		<path fill="#282D33" d="M53.889,100.663l-3.447-1.897l7.584-22.649h-24.05l35.615-43.72l3.447,1.898l-7.585,22.652h24.05
			L53.889,100.663z M42.393,72.116h21.19l-5.864,17.512l23.365-28.682H59.895l5.864-17.514L42.393,72.116z"/>
	</g>
</g>
</svg>
